<mxfile host="app.diagrams.net" modified="2024-04-19T07:24:28.747Z" agent="Mozilla/5.0 (Windows NT 10.0; Win64; x64) AppleWebKit/537.36 (KHTML, like Gecko) Chrome/121.0.0.0 Safari/537.36 OPR/107.0.0.0" etag="4zx0epuFeyQR4ybpy6f1" version="24.2.5" type="github">
  <diagram name="demo app" id="Uen-3QTi2wZYTPHb1LUK">
    <mxGraphModel dx="1836" dy="542" grid="1" gridSize="10" guides="1" tooltips="1" connect="1" arrows="1" fold="1" page="1" pageScale="1" pageWidth="827" pageHeight="1169" math="0" shadow="0">
      <root>
        <mxCell id="0" />
        <mxCell id="1" parent="0" />
        <mxCell id="JvOY5XS8lhAY2wzWFS0Z-13" value="demo app" style="rounded=0;whiteSpace=wrap;html=1;verticalAlign=top;fillColor=#d5e8d4;strokeColor=#82b366;" vertex="1" parent="1">
          <mxGeometry x="50" y="50" width="630" height="380" as="geometry" />
        </mxCell>
        <mxCell id="JvOY5XS8lhAY2wzWFS0Z-1" value="frontend" style="rounded=0;whiteSpace=wrap;html=1;verticalAlign=top;" vertex="1" parent="1">
          <mxGeometry x="110" y="90" width="120" height="280" as="geometry" />
        </mxCell>
        <mxCell id="JvOY5XS8lhAY2wzWFS0Z-15" style="edgeStyle=orthogonalEdgeStyle;rounded=0;orthogonalLoop=1;jettySize=auto;html=1;" edge="1" parent="1" source="JvOY5XS8lhAY2wzWFS0Z-2" target="JvOY5XS8lhAY2wzWFS0Z-8">
          <mxGeometry relative="1" as="geometry" />
        </mxCell>
        <mxCell id="JvOY5XS8lhAY2wzWFS0Z-28" value="5432" style="edgeLabel;html=1;align=center;verticalAlign=middle;resizable=0;points=[];" vertex="1" connectable="0" parent="JvOY5XS8lhAY2wzWFS0Z-15">
          <mxGeometry x="0.1547" relative="1" as="geometry">
            <mxPoint as="offset" />
          </mxGeometry>
        </mxCell>
        <mxCell id="JvOY5XS8lhAY2wzWFS0Z-2" value="map services" style="rounded=0;whiteSpace=wrap;html=1;verticalAlign=top;" vertex="1" parent="1">
          <mxGeometry x="294" y="90" width="120" height="280" as="geometry" />
        </mxCell>
        <mxCell id="JvOY5XS8lhAY2wzWFS0Z-32" style="edgeStyle=orthogonalEdgeStyle;rounded=0;orthogonalLoop=1;jettySize=auto;html=1;" edge="1" parent="1" source="JvOY5XS8lhAY2wzWFS0Z-3">
          <mxGeometry relative="1" as="geometry">
            <mxPoint x="470" y="240" as="targetPoint" />
          </mxGeometry>
        </mxCell>
        <mxCell id="JvOY5XS8lhAY2wzWFS0Z-3" value="data sources" style="rounded=0;whiteSpace=wrap;html=1;verticalAlign=top;" vertex="1" parent="1">
          <mxGeometry x="490" y="90" width="120" height="280" as="geometry" />
        </mxCell>
        <mxCell id="JvOY5XS8lhAY2wzWFS0Z-14" style="edgeStyle=orthogonalEdgeStyle;rounded=0;orthogonalLoop=1;jettySize=auto;html=1;entryX=0;entryY=0.75;entryDx=0;entryDy=0;" edge="1" parent="1" source="JvOY5XS8lhAY2wzWFS0Z-4" target="JvOY5XS8lhAY2wzWFS0Z-7">
          <mxGeometry relative="1" as="geometry" />
        </mxCell>
        <mxCell id="JvOY5XS8lhAY2wzWFS0Z-30" value="9090" style="edgeLabel;html=1;align=center;verticalAlign=middle;resizable=0;points=[];" vertex="1" connectable="0" parent="JvOY5XS8lhAY2wzWFS0Z-14">
          <mxGeometry x="0.0269" y="-1" relative="1" as="geometry">
            <mxPoint as="offset" />
          </mxGeometry>
        </mxCell>
        <mxCell id="JvOY5XS8lhAY2wzWFS0Z-4" value="react app" style="rounded=0;whiteSpace=wrap;html=1;fillColor=#e1d5e7;strokeColor=#9673a6;" vertex="1" parent="1">
          <mxGeometry x="115" y="150" width="110" height="40" as="geometry" />
        </mxCell>
        <mxCell id="JvOY5XS8lhAY2wzWFS0Z-5" value="npm server" style="rounded=0;whiteSpace=wrap;html=1;" vertex="1" parent="1">
          <mxGeometry x="115" y="210" width="110" height="40" as="geometry" />
        </mxCell>
        <mxCell id="JvOY5XS8lhAY2wzWFS0Z-6" value="leaflet gs" style="rounded=0;whiteSpace=wrap;html=1;fillColor=#008a00;fontColor=#ffffff;strokeColor=#005700;" vertex="1" parent="1">
          <mxGeometry x="115" y="270" width="110" height="40" as="geometry" />
        </mxCell>
        <mxCell id="JvOY5XS8lhAY2wzWFS0Z-16" style="edgeStyle=orthogonalEdgeStyle;rounded=0;orthogonalLoop=1;jettySize=auto;html=1;" edge="1" parent="1" source="JvOY5XS8lhAY2wzWFS0Z-7" target="JvOY5XS8lhAY2wzWFS0Z-9">
          <mxGeometry relative="1" as="geometry" />
        </mxCell>
        <mxCell id="JvOY5XS8lhAY2wzWFS0Z-29" value="storage&lt;div&gt;&lt;br&gt;&lt;/div&gt;" style="edgeLabel;html=1;align=center;verticalAlign=middle;resizable=0;points=[];" vertex="1" connectable="0" parent="JvOY5XS8lhAY2wzWFS0Z-16">
          <mxGeometry x="-0.3807" y="1" relative="1" as="geometry">
            <mxPoint as="offset" />
          </mxGeometry>
        </mxCell>
        <mxCell id="JvOY5XS8lhAY2wzWFS0Z-7" value="geoserver" style="rounded=0;whiteSpace=wrap;html=1;fillColor=#dae8fc;strokeColor=#6c8ebf;" vertex="1" parent="1">
          <mxGeometry x="303" y="210" width="102" height="40" as="geometry" />
        </mxCell>
        <mxCell id="JvOY5XS8lhAY2wzWFS0Z-8" value="post gis" style="rounded=0;whiteSpace=wrap;html=1;fillColor=#fa6800;fontColor=#000000;strokeColor=#C73500;" vertex="1" parent="1">
          <mxGeometry x="495" y="180" width="110" height="30" as="geometry" />
        </mxCell>
        <mxCell id="JvOY5XS8lhAY2wzWFS0Z-9" value="gpkg, fgb files" style="rounded=0;whiteSpace=wrap;html=1;" vertex="1" parent="1">
          <mxGeometry x="495" y="260" width="110" height="40" as="geometry" />
        </mxCell>
        <mxCell id="JvOY5XS8lhAY2wzWFS0Z-25" style="edgeStyle=orthogonalEdgeStyle;rounded=0;orthogonalLoop=1;jettySize=auto;html=1;" edge="1" parent="1" source="JvOY5XS8lhAY2wzWFS0Z-20" target="JvOY5XS8lhAY2wzWFS0Z-7">
          <mxGeometry relative="1" as="geometry">
            <Array as="points">
              <mxPoint x="-185" y="30" />
              <mxPoint x="280" y="30" />
              <mxPoint x="280" y="230" />
            </Array>
          </mxGeometry>
        </mxCell>
        <mxCell id="JvOY5XS8lhAY2wzWFS0Z-31" value="ows" style="edgeLabel;html=1;align=center;verticalAlign=middle;resizable=0;points=[];" vertex="1" connectable="0" parent="JvOY5XS8lhAY2wzWFS0Z-25">
          <mxGeometry x="-0.4252" y="-4" relative="1" as="geometry">
            <mxPoint as="offset" />
          </mxGeometry>
        </mxCell>
        <mxCell id="JvOY5XS8lhAY2wzWFS0Z-20" value="GIS system client" style="shape=umlActor;verticalLabelPosition=bottom;verticalAlign=top;html=1;outlineConnect=0;" vertex="1" parent="1">
          <mxGeometry x="-200" y="90" width="30" height="60" as="geometry" />
        </mxCell>
        <mxCell id="JvOY5XS8lhAY2wzWFS0Z-24" style="edgeStyle=orthogonalEdgeStyle;rounded=0;orthogonalLoop=1;jettySize=auto;html=1;" edge="1" parent="1" source="JvOY5XS8lhAY2wzWFS0Z-21" target="JvOY5XS8lhAY2wzWFS0Z-4">
          <mxGeometry relative="1" as="geometry">
            <Array as="points">
              <mxPoint x="-110" y="300" />
              <mxPoint x="-110" y="180" />
            </Array>
          </mxGeometry>
        </mxCell>
        <mxCell id="JvOY5XS8lhAY2wzWFS0Z-27" value="web browser" style="edgeLabel;html=1;align=center;verticalAlign=middle;resizable=0;points=[];" vertex="1" connectable="0" parent="JvOY5XS8lhAY2wzWFS0Z-24">
          <mxGeometry x="0.1086" y="-2" relative="1" as="geometry">
            <mxPoint as="offset" />
          </mxGeometry>
        </mxCell>
        <mxCell id="JvOY5XS8lhAY2wzWFS0Z-21" value="Web app client" style="shape=umlActor;verticalLabelPosition=bottom;verticalAlign=top;html=1;outlineConnect=0;" vertex="1" parent="1">
          <mxGeometry x="-200" y="270" width="30" height="60" as="geometry" />
        </mxCell>
      </root>
    </mxGraphModel>
  </diagram>
</mxfile>
